<svg xmlns="http://www.w3.org/2000/svg" viewBox="0 0 140 140">

<circle
cx="70"
cy="70"
r="64"
fill="#1f1f1f"
stroke="#c96b2c"
stroke-width="6"
/>

<g transform="translate(15 34)">
<g fill="#ffffff">
    
<path d="M106.85,0H4.01C1.77.03-.02,1.86,0,4.09v44.87c0,1.71,1.05,3.25,2.65,3.85l51.61,18.95c.43.16.89.24,1.36.24.47,0,.93-.08,1.37-.24l51.22-18.94c1.6-.61,2.65-2.14,2.65-3.85V4.09c.02-2.24-1.77-4.07-4.01-4.09ZM108.36,48.97c0,.67-.4,1.27-1.02,1.51l-51.22,18.94c-.32.12-.68.12-1,0L3.51,50.47c-.62-.24-1.03-.84-1.02-1.51V4.09c-.02-.86.66-1.58,1.52-1.6h102.83c.86.03,1.54.74,1.52,1.6v44.87Z"/>

<path d="M33.19,5.7h-6.38c-.58,0-.92.37-1.06,1.11-1.72,9.81-3.51,19.61-5.36,29.39-1.72-9.84-3.51-19.66-5.36-29.48-.14-.68-.48-1.02-1.06-1.02h-6.38c-.63,0-.97.37-.97,1.06v40.39c-.04.63.36,1.21.97,1.4l4.45,1.54c.63.22.97-.06.97-.78v-25.16l.34.05c1.64,8.98,3.23,17.96,4.78,26.95.05.64.47,1.19,1.06,1.41l2.37.82c.58.2.92-.04,1.06-.71,1.64-8.81,3.24-17.64,4.78-26.47l.34.05v28.03c-.08.69.32,1.34.97,1.58l4.49,1.56c.63.22.97-.12.97-.97V7c0-.84-.34-1.3-.97-1.3Z"/>

<path d="M51.51,6.71c-.1-.73-.39-1.02-.82-1.02h-6.72c-.43,0-.72.28-.82.96-2.54,16.79-5.21,33.56-8.02,50.31,0,0,0,.01,0,.02-.19.54.1,1.13.63,1.31l5.17,1.79c.43.15.67-.11.77-.69.44-3.2.87-6.41,1.3-9.61l8.6,2.38c.45,3.69.9,7.37,1.35,11.06.1.69.34,1.14.77,1.29h0c2.05.71,3.07.44,5.12-.27.58-.2.78-.71.68-1.47-2.8-18.67-5.34-37.38-8.02-56.07ZM44.21,42.07c1.05-8,2.08-15.99,3.09-23.99h0c1.05,8.46,2.08,16.93,3.09,25.39l-6.18-1.4Z"/>

<path d="M74.31,5.7h-12.13c-.48,0-.77.43-.77,1.15v55.37c0,.72.29,1.05.77.89l5.02-1.74c.53-.24.84-.8.77-1.38v-17.45l3.33-.77c1.06,5.38,2.14,10.75,3.24,16.12.1.57.34.81.82.65l5.02-1.74c.57-.19.87-.81.68-1.38-1.13-5.3-2.24-10.6-3.33-15.91,2.59-2.24,3.65-5.83,3.53-9.18v-15.49c.08-4.41-1.82-9.24-6.96-9.14ZM74.7,29.58c0,1.73-.68,2.77-1.93,2.99h0l-4.78.83V14.84l4.79-.28c1.26-.07,1.93.82,1.93,2.54v12.47Z"/>

<path d="M96.29,26.95c2.61-6.71,5.35-13.37,8.21-19.98.34-.75.05-1.28-.68-1.28h-5.07c-.52,0-.97.35-1.11.85-2.57,6.24-5.05,12.51-7.44,18.83V6.89c0-.78-.34-1.19-.97-1.19h-4.64c-.63,0-.97.44-.97,1.25v47.48c0,.82.34,1.13.97.92l4.64-1.61c.63-.23,1.03-.86.97-1.53v-13.18c.71-1.87,1.07-2.79,1.79-4.61,1.95,5.17,3.98,10.3,6.09,15.41.19.5.53.66,1.11.46l5.12-1.77c.77-.27,1.06-.9.72-1.47-3.08-6.62-5.98-13.32-8.74-20.08Z"/>
  </g>
</g>

</svg>